<svg xmlns="http://www.w3.org/2000/svg" viewBox="-30 0 780 1100" role="img" aria-label="Human body schematic for organoid research map">
  <defs>
    <linearGradient id="skin" x1="0" x2="0" y1="0" y2="1">
      <stop offset="0" stop-color="#fbfcff"/>
      <stop offset=".58" stop-color="#f4f7fb"/>
      <stop offset="1" stop-color="#edf2f7"/>
    </linearGradient>
    <filter id="softLift" x="-20%" y="-20%" width="140%" height="140%">
      <feDropShadow dx="0" dy="12" stdDeviation="18" flood-color="#344054" flood-opacity=".10"/>
    </filter>
  </defs>

  <rect x="-30" width="780" height="1100" fill="none"/>
  <ellipse cx="360" cy="1010" rx="172" ry="24" fill="#d9e2ec" opacity=".28"/>

  <g filter="url(#softLift)">
    <path d="M272 229c-45 26-73 82-87 159L137 653c-8 47 16 84 55 90 36 5 62-17 70-58l31-153c6 92 11 175 17 247 2 24 13 43 31 55l-19 183c-3 32 19 57 51 57 30 0 51-23 53-54l13-170 13 170c2 31 23 54 53 54 32 0 54-25 51-57l-19-183c18-12 29-31 31-55 6-72 11-155 17-247l31 153c8 41 34 63 70 58 39-6 63-43 55-90l-48-265c-14-77-42-133-87-159-28-16-61-26-99-30l-8-46H280l-8 46z" fill="url(#skin)" stroke="#cbd5e1" stroke-width="7" stroke-linejoin="round"/>
    <path d="M304 171c5 32 25 54 56 54s51-22 56-54h-112z" fill="url(#skin)" stroke="#cbd5e1" stroke-width="7" stroke-linejoin="round"/>
    <ellipse cx="360" cy="107" rx="74" ry="88" fill="url(#skin)" stroke="#cbd5e1" stroke-width="7"/>
    <ellipse cx="281" cy="113" rx="13" ry="26" fill="#f2f6fb" stroke="#cbd5e1" stroke-width="5"/>
    <ellipse cx="439" cy="113" rx="13" ry="26" fill="#f2f6fb" stroke="#cbd5e1" stroke-width="5"/>
    <path d="M319 208c19 15 63 15 82 0" fill="none" stroke="#d6dee9" stroke-width="5" stroke-linecap="round"/>
    <path d="M270 252c36-19 144-19 180 0M246 373c31-54 197-54 228 0M294 819c34 28 98 28 132 0" fill="none" stroke="#d8e0ea" stroke-width="5" stroke-linecap="round" opacity=".72"/>
  </g>

  <g opacity=".92">
    <path d="M306 81c17-36 87-42 112-6 17 25 7 65-18 85-29 23-82 11-101-16-12-18-5-43 7-63z" fill="#eef0ff" stroke="#8a8ae6" stroke-width="4"/>
    <path d="M318 97c18-7 32-5 44 6 14-9 31-9 48 2M313 122c21 4 39 0 53-13 12 16 29 22 51 17M331 145c17-10 34-10 52 2" fill="none" stroke="#a7a7ee" stroke-width="4" stroke-linecap="round"/>

    <ellipse cx="331" cy="118" rx="16" ry="8" fill="#eef2f7" stroke="#aab6c7" stroke-width="3"/>
    <ellipse cx="389" cy="118" rx="16" ry="8" fill="#eef2f7" stroke="#aab6c7" stroke-width="3"/>
    <circle cx="331" cy="118" r="4" fill="#7f56d9" opacity=".7"/>
    <circle cx="389" cy="118" r="4" fill="#7f56d9" opacity=".7"/>

    <path d="M302 311c-42 29-58 100-37 177 39 5 82-45 82-116 0-34-16-55-45-61z" fill="#e7f4f8" stroke="#79b7c9" stroke-width="5"/>
    <path d="M418 311c42 29 58 100 37 177-39 5-82-45-82-116 0-34 16-55 45-61z" fill="#e7f4f8" stroke="#79b7c9" stroke-width="5"/>
    <path d="M360 310v154" stroke="#9fb6c4" stroke-width="5" stroke-linecap="round"/>
    <path d="M337 348c-24 24-35 53-33 88M383 348c24 24 35 53 33 88" fill="none" stroke="#b9d6df" stroke-width="4" stroke-linecap="round"/>

    <path d="M359 392c25-22 66-8 69 28 3 39-40 66-69 92-29-26-72-53-69-92 3-36 44-50 69-28z" fill="#fae8ec" stroke="#d9687a" stroke-width="5"/>
    <path d="M333 416c17 8 29 21 36 39 9-24 22-39 43-48" fill="none" stroke="#e99aa7" stroke-width="4" stroke-linecap="round"/>

    <path d="M237 504c72-46 180-52 248-7-20 55-111 82-241 48-7-13-9-27-7-41z" fill="#fbf1dd" stroke="#d6a252" stroke-width="5"/>
    <path d="M296 579c-28 21-64 19-82-6 9-41 48-60 82-34M424 579c28 21 64 19 82-6-9-41-48-60-82-34" fill="#e5f4f0" stroke="#65b5a7" stroke-width="5"/>

    <rect x="286" y="617" width="148" height="139" rx="48" fill="#edf7ee" stroke="#8ebf92" stroke-width="5"/>
    <path d="M313 662c30-22 68-22 94 0M309 704c35 26 76 26 104 0M346 636c-12 39-12 79 0 118M378 636c12 39 12 79 0 118" fill="none" stroke="#abcfae" stroke-width="6" stroke-linecap="round"/>
  </g>

  <path d="M327 148c23 10 43 10 66 0" fill="none" stroke="#c8d2df" stroke-width="4" stroke-linecap="round"/>
  <path d="M334 101c8-6 17-6 25 0M361 101c8-6 17-6 25 0" fill="none" stroke="#aeb9c8" stroke-width="4" stroke-linecap="round"/>
</svg>
