<svg xmlns="http://www.w3.org/2000/svg" viewBox="0 0 560 1080" role="img" aria-label="Anatomical human body schematic for organoid research map">
  <defs>
    <linearGradient id="leftSkin" x1="0" x2="1" y1="0" y2="0">
      <stop offset="0" stop-color="#dcebfb" stop-opacity=".76"/>
      <stop offset="1" stop-color="#f8fbff" stop-opacity=".50"/>
    </linearGradient>
    <linearGradient id="rightSkin" x1="0" x2="1" y1="0" y2="0">
      <stop offset="0" stop-color="#fff8fb" stop-opacity=".52"/>
      <stop offset="1" stop-color="#f9ddeb" stop-opacity=".72"/>
    </linearGradient>
    <filter id="quietShadow" x="-25%" y="-20%" width="150%" height="145%">
      <feDropShadow dx="0" dy="12" stdDeviation="18" flood-color="#344054" flood-opacity=".10"/>
    </filter>
    <clipPath id="bodyClip">
      <path d="M279 31c-40 0-72 33-72 79 0 31 12 58 32 72l-7 47-56 22c-39 16-67 52-76 98L54 597c-8 44 16 75 51 77 34 2 58-22 64-64l27-166 10 272c1 26 11 47 29 59l-34 243c-5 36 17 64 50 64 29 0 50-23 54-56l31-245 31 245c4 33 25 56 54 56 33 0 55-28 50-64l-34-243c18-12 28-33 29-59l10-272 27 166c6 42 30 66 64 64 35-2 59-33 51-77l-46-248c-9-46-37-82-76-98l-56-22-7-47c20-14 32-41 32-72 0-46-32-79-72-79h-6z"/>
    </clipPath>
  </defs>

  <rect width="560" height="1080" fill="none"/>
  <ellipse cx="282" cy="1030" rx="158" ry="24" fill="#dbe4ee" opacity=".32"/>

  <g filter="url(#quietShadow)">
    <path d="M279 31c-40 0-72 33-72 79 0 31 12 58 32 72l-7 47-56 22c-39 16-67 52-76 98L54 597c-8 44 16 75 51 77 34 2 58-22 64-64l27-166 10 272c1 26 11 47 29 59l-34 243c-5 36 17 64 50 64 29 0 50-23 54-56l31-245 31 245c4 33 25 56 54 56 33 0 55-28 50-64l-34-243c18-12 28-33 29-59l10-272 27 166c6 42 30 66 64 64 35-2 59-33 51-77l-46-248c-9-46-37-82-76-98l-56-22-7-47c20-14 32-41 32-72 0-46-32-79-72-79h-6z" fill="#fbfdff" stroke="#cbd8e6" stroke-width="5" stroke-linejoin="round"/>
    <g clip-path="url(#bodyClip)">
      <rect x="18" y="0" width="262" height="1080" fill="url(#leftSkin)"/>
      <rect x="280" y="0" width="262" height="1080" fill="url(#rightSkin)"/>
      <path d="M279 182v886" stroke="#d7e1ed" stroke-width="4" opacity=".62"/>
      <path d="M93 648c30 38 69 35 88-7M379 641c24 46 63 51 91 12" fill="none" stroke="#bccddd" stroke-width="4" opacity=".48"/>
      <path d="M223 781c22 19 91 19 113 0" fill="none" stroke="#c7d5e2" stroke-width="4" opacity=".54"/>
    </g>

    <path d="M235 184c18 20 70 20 88 0" fill="none" stroke="#c5d3df" stroke-width="4" stroke-linecap="round"/>
    <path d="M214 232c36 25 94 25 130 0" fill="none" stroke="#d3dde8" stroke-width="4" stroke-linecap="round"/>
    <path d="M176 278c44-28 164-28 208 0" fill="none" stroke="#dce5ee" stroke-width="4" stroke-linecap="round" opacity=".75"/>
  </g>

  <g opacity=".95">
    <path d="M229 93c4-45 31-68 69-62 32 5 55 32 55 70 0 44-31 77-74 77-45 0-54-43-50-85z" fill="#fde3c8" stroke="#f0b982" stroke-width="4"/>
    <path d="M242 76c20-15 38-12 48 2 17-12 37-3 45 18M239 105c23-5 37 1 47 15 14-20 37-25 55-12M252 137c25 6 47 3 67-12M263 62c-1 23 8 39 24 49M315 55c-15 19-18 39-8 60M273 154c13-17 30-22 52-18" fill="none" stroke="#f7bd8a" stroke-width="4" stroke-linecap="round"/>
    <ellipse cx="248" cy="126" rx="10" ry="14" fill="#fff4e8" stroke="#d9b08d" stroke-width="3"/>
    <ellipse cx="311" cy="126" rx="10" ry="14" fill="#fff4e8" stroke="#d9b08d" stroke-width="3"/>
    <path d="M264 154c9 5 22 5 31 0" fill="none" stroke="#d4b39a" stroke-width="4" stroke-linecap="round"/>

    <path d="M273 185h15v105h-15z" fill="#f1fbff" stroke="#87b7d2" stroke-width="4"/>
    <path d="M261 204c13 14 24 14 38 0M260 226c15 12 25 12 40 0M260 248c15 12 25 12 40 0" fill="none" stroke="#9ec6dc" stroke-width="3" stroke-linecap="round"/>

    <path d="M210 285c-49 32-70 112-44 198 50 7 92-49 94-134 1-35-18-58-50-64z" fill="#f4b997" stroke="#e48967" stroke-width="5" opacity=".86"/>
    <path d="M350 285c49 32 70 112 44 198-50 7-92-49-94-134-1-35 18-58 50-64z" fill="#f6c4a8" stroke="#e29474" stroke-width="5" opacity=".86"/>
    <path d="M222 329c-21 37-22 80-5 121M338 329c21 37 22 80 5 121" fill="none" stroke="#f8d7c8" stroke-width="4" stroke-linecap="round"/>

    <path d="M276 379c32-32 82-15 86 31 3 51-51 88-86 119-35-31-89-68-86-119 4-46 54-63 86-31z" fill="#c94d2e" stroke="#b84127" stroke-width="5" opacity=".92"/>
    <path d="M248 419c23 11 40 30 49 56 10-34 27-56 55-68" fill="none" stroke="#e49b86" stroke-width="5" stroke-linecap="round"/>

    <path d="M157 493c86-61 202-70 280-13-26 73-134 105-274 54-8-14-10-27-6-41z" fill="#d8b17e" stroke="#b98950" stroke-width="5" opacity=".88"/>
    <path d="M314 503c33-23 64-15 79 13-20 34-61 40-93 18" fill="#cfad7a" stroke="#a67d4a" stroke-width="4" opacity=".72"/>
    <path d="M223 548c-29 24-71 18-91-15 9-45 55-67 95-37M336 548c29 24 71 18 91-15-9-45-55-67-95-37" fill="#d9cec0" stroke="#988a7a" stroke-width="5"/>
    <path d="M319 512c16 0 29-10 31-25 18 16 16 40-4 54-14-3-22-13-27-29z" fill="#66b67f" stroke="#2c9561" stroke-width="3"/>

    <path d="M180 601c13-43 54-66 101-61 45 4 78 33 83 76 6 54-23 99-85 101-68 2-116-58-99-116z" fill="#ead8bc" stroke="#c5ab86" stroke-width="5" opacity=".92"/>
    <path d="M213 586c35-22 86-18 116 12M201 628c51 21 102 14 134-20M206 674c45 26 95 21 132-13M245 562c-18 51-15 99 8 144M303 562c19 51 16 101-9 145" fill="none" stroke="#fff8eb" stroke-width="8" stroke-linecap="round"/>
    <path d="M167 576c-22 25-20 69 6 88M389 576c22 25 20 69-6 88" fill="none" stroke="#8d8175" stroke-width="7" stroke-linecap="round" opacity=".55"/>
  </g>

  <g opacity=".72" fill="none" stroke-linecap="round" stroke-linejoin="round">
    <path d="M397 246c28 48 42 125 47 230M441 503c10 60 23 102 51 136" stroke="#d4a4bd" stroke-width="7"/>
    <path d="M417 296c19 51 24 121 28 191M449 521c11 50 25 83 49 105" stroke="#efd0df" stroke-width="6"/>
    <path d="M414 264l35 9 20 112M450 381l-21 96M430 488l38 151M468 641l20 151M491 796l-20 162M471 960h34M488 794h-38" stroke="#d5bf99" stroke-width="10"/>
    <circle cx="450" cy="506" r="18" stroke="#d5bf99" stroke-width="9"/>
    <circle cx="487" cy="803" r="23" stroke="#d5bf99" stroke-width="9"/>
    <path d="M456 985c15 12 44 12 62 1" stroke="#d5bf99" stroke-width="9"/>

    <path d="M145 295c-28 60-39 128-47 218M104 541c-12 54-29 88-54 109" stroke="#9ec6ee" stroke-width="7"/>
    <path d="M235 766c-15 75-22 137-17 210M340 766c13 75 19 137 14 210" stroke="#a9ccee" stroke-width="7"/>
    <path d="M207 499c-49 49-77 104-84 166M193 784c-6 70-4 136 8 198" stroke="#df745f" stroke-width="5"/>
    <path d="M373 503c47 49 73 102 80 163M372 784c7 70 5 136-8 198" stroke="#e07d67" stroke-width="5"/>
    <path d="M185 496c-37 48-58 103-63 164M228 784c-20 73-30 136-28 190" stroke="#9bc6ee" stroke-width="5"/>
    <path d="M391 496c39 48 60 104 64 164M337 784c20 73 30 136 28 190" stroke="#9bc6ee" stroke-width="5"/>
  </g>

  <g opacity=".76">
    <path d="M90 663c-13 18-34 34-59 42M31 705c23 8 45 3 66-13M39 721c23 7 42 2 60-11M51 738c19 4 35-1 51-14" fill="none" stroke="#9ec6ee" stroke-width="5" stroke-linecap="round"/>
    <path d="M470 663c13 18 34 34 59 42M529 705c-23 8-45 3-66-13M521 721c-23 7-42 2-60-11M509 738c-19 4-35-1-51-14" fill="none" stroke="#e6a7ca" stroke-width="5" stroke-linecap="round"/>
  </g>
</svg>
